
<svg version="1.0" xmlns="http://www.w3.org/2000/svg"
 width="574.000000pt" height="1066.000000pt" viewBox="0 0 574.000000 1066.000000"
 preserveAspectRatio="xMidYMid meet">

<g transform="translate(0.000000,1066.000000) scale(0.100000,-0.100000)"
fill="#000000" stroke="none">
<path d="M2360 10161 c-42 -9 -140 -52 -181 -81 -55 -40 -145 -189 -174 -290
-25 -85 -26 -117 -9 -170 14 -42 15 -67 9 -133 -14 -133 -9 -184 31 -307 20
-63 47 -151 60 -195 43 -143 67 -169 166 -181 l54 -6 17 -56 c19 -62 16 -72
-18 -72 -13 0 -52 -22 -87 -48 -77 -59 -100 -72 -130 -72 -13 0 -51 -18 -85
-40 -65 -42 -83 -73 -83 -147 0 -35 -20 -55 -119 -116 -87 -53 -185 -182 -218
-287 -21 -67 -53 -247 -53 -297 0 -24 7 -75 15 -112 10 -41 15 -102 13 -157
l-3 -89 -16 63 c-32 122 -125 252 -270 379 -6 4 -23 29 -39 56 -24 39 -35 47
-59 47 -16 0 -36 -7 -45 -15 -13 -14 -25 -14 -108 0 -115 18 -184 19 -268 1
-186 -40 -358 -157 -443 -301 -38 -65 -77 -151 -77 -170 0 -12 -5 -26 -12 -33
-16 -16 -23 -235 -9 -289 6 -24 16 -62 22 -85 21 -84 100 -217 164 -275 122
-111 225 -163 368 -189 156 -27 271 -11 432 60 24 11 41 14 43 8 22 -68 262
-329 329 -358 27 -12 37 -11 80 3 67 23 142 72 187 124 42 50 55 77 86 181 12
40 31 102 42 138 64 214 98 359 98 428 0 34 4 62 8 62 17 0 60 -96 72 -160 24
-126 28 -176 29 -318 1 -144 2 -150 68 -497 16 -85 20 -276 11 -590 -2 -51 3
-79 16 -105 30 -58 95 -150 168 -238 37 -46 68 -87 68 -92 0 -4 -16 -36 -35
-70 -19 -34 -35 -72 -35 -83 0 -47 57 -176 136 -308 29 -47 61 -106 72 -130
11 -24 48 -72 82 -107 60 -60 62 -63 45 -82 -23 -26 -15 -65 35 -169 35 -73
55 -97 188 -229 136 -135 262 -276 262 -293 0 -4 -27 -5 -60 -2 -89 8 -182
-19 -231 -68 -62 -62 -73 -92 -74 -194 0 -82 3 -94 29 -135 40 -64 87 -110
110 -110 12 0 30 -8 42 -18 41 -34 116 -144 157 -230 39 -83 41 -91 39 -175
-2 -86 15 -185 41 -230 32 -58 99 -140 173 -214 68 -69 88 -83 114 -83 30 0
33 -4 94 -132 34 -73 75 -162 91 -198 34 -74 198 -400 225 -445 23 -38 70
-162 70 -184 0 -10 11 -40 25 -69 24 -50 24 -51 8 -116 -14 -60 -14 -69 1
-116 9 -28 30 -72 46 -98 15 -26 38 -83 49 -127 12 -44 43 -125 70 -180 27
-55 59 -122 71 -149 47 -106 141 -206 192 -206 68 0 251 88 328 157 72 65 82
146 21 178 -23 12 -33 27 -46 72 -8 32 -20 68 -25 81 -9 20 -5 30 24 63 18 22
41 65 51 96 17 54 17 59 0 112 -44 134 -182 288 -285 316 -138 39 -133 36
-152 86 -9 26 -31 70 -48 98 -18 28 -39 79 -46 114 -8 34 -21 87 -29 117 -82
330 -91 370 -124 555 -26 145 -32 173 -45 230 -41 180 -65 244 -158 430 -50
100 -50 100 -45 179 3 43 9 82 14 86 9 9 77 -22 147 -68 82 -53 173 -41 232
32 25 30 33 52 43 124 7 48 16 112 21 142 5 30 16 102 25 160 17 112 25 130
45 105 26 -32 64 -18 123 44 74 78 75 85 18 170 -88 132 -91 140 -91 250 0
101 9 138 66 269 21 49 17 82 -13 114 l-26 28 22 89 c12 50 28 125 36 168 8
43 31 146 52 228 35 144 37 157 37 325 1 253 -17 322 -135 515 -45 74 -48 83
-39 115 6 19 10 60 10 90 0 82 0 81 302 405 31 34 75 83 96 111 62 78 271 393
305 459 42 81 48 168 18 257 -48 138 -56 150 -261 368 -64 69 -146 159 -181
200 -102 120 -216 229 -324 310 -94 71 -104 82 -166 185 -50 83 -88 130 -160
200 -109 106 -166 141 -309 191 -138 47 -176 68 -202 108 -31 48 -77 76 -124
76 -21 0 -82 9 -134 21 -155 33 -168 34 -190 14 -16 -14 -31 -17 -80 -12 -33
3 -75 14 -92 24 -57 33 -63 58 -63 248 0 162 1 173 26 226 36 75 42 129 29
250 -11 108 -50 235 -86 281 -96 121 -264 189 -458 187 -56 -1 -117 -4 -136
-8z m2020 -2628 c140 -137 192 -181 330 -282 l24 -17 -20 -55 c-12 -30 -38
-99 -58 -154 -62 -165 -67 -177 -101 -255 -18 -41 -37 -74 -42 -73 -8 2 -14
27 -34 133 -30 163 -72 307 -103 355 -19 28 -50 84 -71 125 -21 41 -54 102
-74 135 -37 60 -37 60 -33 153 2 50 7 92 12 92 4 0 80 -71 170 -157z"/>
</g>
</svg>
